<?xml version="1.0" encoding="UTF-8" standalone="no"?>
<!DOCTYPE svg PUBLIC "-//W3C//DTD SVG 1.1//EN"
 "http://www.w3.org/Graphics/SVG/1.1/DTD/svg11.dtd">
<!-- Generated by graphviz version 2.38.0 (20140413.2041)
 -->
<!-- Title: %3 Pages: 1 -->
<svg width="291pt" height="325pt"
 viewBox="0.00 0.00 290.50 325.20" xmlns="http://www.w3.org/2000/svg" xmlns:xlink="http://www.w3.org/1999/xlink">
<g id="graph0" class="graph" transform="scale(1 1) rotate(0) translate(4 321.196)">
<title>%3</title>
<polygon fill="white" stroke="none" points="-4,4 -4,-321.196 286.5,-321.196 286.5,4 -4,4"/>
<!-- 2242011246064 -->
<g id="node1" class="node"><title>2242011246064</title>
<polygon fill="none" stroke="black" points="65,-176.598 0,-176.598 0,-140.598 65,-140.598 65,-176.598"/>
<text text-anchor="start" x="8" y="-161.598" font-family="verdana" font-size="10.00">process 1</text>
<text text-anchor="start" x="8.5" y="-150.598" font-family="verdana" font-size="10.00">2.00 kg/h</text>
</g>
<!-- ww -->
<g id="node6" class="node"><title>ww</title>
<ellipse fill="#abebc6" stroke="black" cx="113.5" cy="-19.799" rx="58.8803" ry="19.6"/>
<text text-anchor="start" x="80" y="-22.799" font-family="verdana" font-weight="bold" font-size="10.00">Wastewater</text>
<text text-anchor="start" x="85" y="-12.799" font-family="verdana" font-size="10.00" fill="blue">90.00 m3/h</text>
</g>
<!-- 2242011246064&#45;&gt;ww -->
<g id="edge6" class="edge"><title>2242011246064&#45;&gt;ww</title>
<path fill="none" stroke="#cd9b1d" d="M31.1412,-140.569C30.6801,-125.551 31.8478,-103.49 40.5,-86.598 49.2131,-69.5874 64.2777,-54.8653 78.4673,-43.6858"/>
<polygon fill="none" stroke="#cd9b1d" points="80.776,-46.329 86.6661,-37.5224 76.5697,-40.7337 80.776,-46.329"/>
<text text-anchor="start" x="40.5" y="-103.098" font-family="Times New Roman,serif" font-weight="bold" font-size="10.00" fill="blue">20.00</text>
</g>
<!-- 2242011355696 -->
<g id="node2" class="node"><title>2242011355696</title>
<polygon fill="none" stroke="black" points="194,-230.598 129,-230.598 129,-194.598 194,-194.598 194,-230.598"/>
<text text-anchor="start" x="137" y="-215.598" font-family="verdana" font-size="10.00">process 2</text>
<text text-anchor="start" x="137.5" y="-204.598" font-family="verdana" font-size="10.00">5.00 kg/h</text>
</g>
<!-- 2242011354448 -->
<g id="node3" class="node"><title>2242011354448</title>
<polygon fill="none" stroke="black" points="282.5,-122.598 212.5,-122.598 212.5,-86.598 282.5,-86.598 282.5,-122.598"/>
<text text-anchor="start" x="223" y="-107.598" font-family="verdana" font-size="10.00">process 3</text>
<text text-anchor="start" x="220.5" y="-96.598" font-family="verdana" font-size="10.00">30.00 kg/h</text>
</g>
<!-- 2242011355696&#45;&gt;2242011354448 -->
<g id="edge4" class="edge"><title>2242011355696&#45;&gt;2242011354448</title>
<path fill="none" stroke="black" d="M172.203,-194.542C184.47,-175.079 203.415,-145.318 207.5,-140.598 210.727,-136.87 214.35,-133.173 218.062,-129.657"/>
<polygon fill="none" stroke="black" points="220.641,-132.044 225.711,-122.741 215.946,-126.851 220.641,-132.044"/>
<text text-anchor="start" x="207.5" y="-161.598" font-family="Times New Roman,serif" font-weight="bold" font-size="10.00" fill="blue">20.00</text>
<text text-anchor="start" x="212.5" y="-151.598" font-family="Times New Roman,serif" font-size="10.00" fill="#145a32">100</text>
</g>
<!-- 2242011357040 -->
<g id="node4" class="node"><title>2242011357040</title>
<polygon fill="none" stroke="black" points="194,-122.598 129,-122.598 129,-86.598 194,-86.598 194,-122.598"/>
<text text-anchor="start" x="137" y="-107.598" font-family="verdana" font-size="10.00">process 4</text>
<text text-anchor="start" x="137.5" y="-96.598" font-family="verdana" font-size="10.00">4.00 kg/h</text>
</g>
<!-- 2242011355696&#45;&gt;2242011357040 -->
<g id="edge5" class="edge"><title>2242011355696&#45;&gt;2242011357040</title>
<path fill="none" stroke="black" d="M161.5,-194.567C161.5,-177.976 161.5,-152.481 161.5,-133.029"/>
<polygon fill="none" stroke="black" points="165,-132.939 161.5,-122.939 158,-132.939 165,-132.939"/>
<text text-anchor="start" x="161.5" y="-161.598" font-family="Times New Roman,serif" font-weight="bold" font-size="10.00" fill="blue">5.71</text>
<text text-anchor="start" x="164" y="-151.598" font-family="Times New Roman,serif" font-size="10.00" fill="#145a32">100</text>
</g>
<!-- 2242011355696&#45;&gt;ww -->
<g id="edge7" class="edge"><title>2242011355696&#45;&gt;ww</title>
<path fill="none" stroke="#cd9b1d" d="M143.464,-194.51C127.362,-177.908 104.912,-151.092 95.5,-122.598 87.5177,-98.4331 93.9005,-69.806 101.184,-49.0736"/>
<polygon fill="none" stroke="#cd9b1d" points="104.509,-50.1758 104.773,-39.5843 97.9615,-47.6996 104.509,-50.1758"/>
<text text-anchor="start" x="95.5" y="-103.098" font-family="Times New Roman,serif" font-weight="bold" font-size="10.00" fill="blue">24.29</text>
</g>
<!-- 2242011354448&#45;&gt;ww -->
<g id="edge8" class="edge"><title>2242011354448&#45;&gt;ww</title>
<path fill="none" stroke="#cd9b1d" d="M219.735,-86.442C199.388,-73.8691 171.586,-56.6903 149.527,-43.0601"/>
<polygon fill="none" stroke="#cd9b1d" points="151.118,-39.9288 140.771,-37.6497 147.438,-45.8837 151.118,-39.9288"/>
<text text-anchor="start" x="189.5" y="-61.598" font-family="Times New Roman,serif" font-weight="bold" font-size="10.00" fill="blue">40.00</text>
</g>
<!-- 2242011357040&#45;&gt;ww -->
<g id="edge9" class="edge"><title>2242011357040&#45;&gt;ww</title>
<path fill="none" stroke="#cd9b1d" d="M151.554,-86.442C145.146,-75.3882 136.674,-60.7743 129.351,-48.1417"/>
<polygon fill="none" stroke="#cd9b1d" points="132.311,-46.2686 124.267,-39.3726 126.255,-49.7794 132.311,-46.2686"/>
<text text-anchor="start" x="140.5" y="-61.598" font-family="Times New Roman,serif" font-weight="bold" font-size="10.00" fill="blue">5.71</text>
</g>
<!-- fw -->
<g id="node5" class="node"><title>fw</title>
<ellipse fill="#bfefff" stroke="black" cx="161.5" cy="-297.397" rx="55.7232" ry="19.6"/>
<text text-anchor="start" x="130" y="-300.397" font-family="verdana" font-weight="bold" font-size="10.00">Freshwater</text>
<text text-anchor="start" x="133" y="-290.397" font-family="verdana" font-size="10.00" fill="blue">90.00 m3/h</text>
</g>
<!-- fw&#45;&gt;2242011246064 -->
<g id="edge1" class="edge"><title>fw&#45;&gt;2242011246064</title>
<path fill="none" stroke="dodgerblue" d="M144.636,-278.513C121.885,-254.387 81.2709,-211.317 55.6683,-184.167"/>
<polygon fill="none" stroke="dodgerblue" points="57.9639,-181.5 48.5568,-176.626 52.8711,-186.302 57.9639,-181.5"/>
<text text-anchor="start" x="126.5" y="-252.598" font-family="Times New Roman,serif" font-weight="bold" font-size="10.00" fill="blue">20.00</text>
</g>
<!-- fw&#45;&gt;2242011355696 -->
<g id="edge2" class="edge"><title>fw&#45;&gt;2242011355696</title>
<path fill="none" stroke="dodgerblue" d="M161.5,-277.193C161.5,-266.44 161.5,-252.85 161.5,-240.996"/>
<polygon fill="none" stroke="dodgerblue" points="165,-240.729 161.5,-230.729 158,-240.729 165,-240.729"/>
<text text-anchor="start" x="161.5" y="-252.598" font-family="Times New Roman,serif" font-weight="bold" font-size="10.00" fill="blue">50.00</text>
</g>
<!-- fw&#45;&gt;2242011354448 -->
<g id="edge3" class="edge"><title>fw&#45;&gt;2242011354448</title>
<path fill="none" stroke="dodgerblue" d="M176.425,-278.147C180.862,-272.371 185.58,-265.858 189.5,-259.598 211.441,-224.558 217.516,-215.504 231.5,-176.598 236.559,-162.524 240.36,-146.287 242.985,-132.896"/>
<polygon fill="none" stroke="dodgerblue" points="246.464,-133.332 244.84,-122.862 239.58,-132.059 246.464,-133.332"/>
<text text-anchor="start" x="225.5" y="-211.098" font-family="Times New Roman,serif" font-weight="bold" font-size="10.00" fill="blue">20.00</text>
</g>
</g>
</svg>
