<?xml version="1.0" encoding="UTF-8" standalone="no"?>
<!DOCTYPE svg PUBLIC "-//W3C//DTD SVG 1.1//EN"
 "http://www.w3.org/Graphics/SVG/1.1/DTD/svg11.dtd">
<!-- Generated by graphviz version 2.38.0 (20140413.2041)
 -->
<!-- Title: %3 Pages: 1 -->
<svg width="282pt" height="338pt"
 viewBox="0.00 0.00 281.50 337.60" xmlns="http://www.w3.org/2000/svg" xmlns:xlink="http://www.w3.org/1999/xlink">
<g id="graph0" class="graph" transform="scale(1 1) rotate(0) translate(4 333.598)">
<title>%3</title>
<polygon fill="white" stroke="none" points="-4,4 -4,-333.598 277.5,-333.598 277.5,4 -4,4"/>
<!-- 2242011404560 -->
<g id="node1" class="node"><title>2242011404560</title>
<polygon fill="none" stroke="black" points="65,-230.598 0,-230.598 0,-194.598 65,-194.598 65,-230.598"/>
<text text-anchor="start" x="8" y="-215.598" font-family="verdana" font-size="10.00">process 1</text>
<text text-anchor="start" x="8.5" y="-204.598" font-family="verdana" font-size="10.00">2.00 kg/h</text>
</g>
<!-- 2242011429760 -->
<g id="node3" class="node"><title>2242011429760</title>
<polygon fill="none" stroke="black" points="117.5,-122.598 47.5,-122.598 47.5,-86.598 117.5,-86.598 117.5,-122.598"/>
<text text-anchor="start" x="58" y="-107.598" font-family="verdana" font-size="10.00">process 3</text>
<text text-anchor="start" x="55.5" y="-96.598" font-family="verdana" font-size="10.00">30.00 kg/h</text>
</g>
<!-- 2242011404560&#45;&gt;2242011429760 -->
<g id="edge4" class="edge"><title>2242011404560&#45;&gt;2242011429760</title>
<path fill="none" stroke="black" d="M39.4876,-194.484C45.5221,-179.985 54.6427,-158.725 63.5,-140.598 64.882,-137.77 66.3735,-134.84 67.8917,-131.935"/>
<polygon fill="none" stroke="black" points="71.0989,-133.36 72.7316,-122.892 64.9271,-130.057 71.0989,-133.36"/>
<text text-anchor="start" x="63.5" y="-161.598" font-family="Times New Roman,serif" font-weight="bold" font-size="10.00" fill="blue">20.00</text>
<text text-anchor="start" x="68.5" y="-151.598" font-family="Times New Roman,serif" font-size="10.00" fill="#145a32">100</text>
</g>
<!-- 2242011429424 -->
<g id="node2" class="node"><title>2242011429424</title>
<polygon fill="none" stroke="black" points="186,-176.598 121,-176.598 121,-140.598 186,-140.598 186,-176.598"/>
<text text-anchor="start" x="129" y="-161.598" font-family="verdana" font-size="10.00">process 2</text>
<text text-anchor="start" x="129.5" y="-150.598" font-family="verdana" font-size="10.00">5.00 kg/h</text>
</g>
<!-- ww -->
<g id="node6" class="node"><title>ww</title>
<ellipse fill="#abebc6" stroke="black" cx="125.5" cy="-19.799" rx="58.8803" ry="19.6"/>
<text text-anchor="start" x="92" y="-22.799" font-family="verdana" font-weight="bold" font-size="10.00">Wastewater</text>
<text text-anchor="start" x="97" y="-12.799" font-family="verdana" font-size="10.00" fill="blue">90.00 m3/h</text>
</g>
<!-- 2242011429424&#45;&gt;ww -->
<g id="edge5" class="edge"><title>2242011429424&#45;&gt;ww</title>
<path fill="none" stroke="#cd9b1d" d="M150.892,-140.521C147.732,-120.54 142.017,-86.508 135.5,-57.598 134.906,-54.9642 134.248,-52.2357 133.561,-49.5095"/>
<polygon fill="none" stroke="#cd9b1d" points="136.94,-48.598 131.008,-39.8193 130.171,-50.381 136.94,-48.598"/>
<text text-anchor="start" x="148.5" y="-103.098" font-family="Times New Roman,serif" font-weight="bold" font-size="10.00" fill="blue">50.00</text>
</g>
<!-- 2242011429760&#45;&gt;ww -->
<g id="edge6" class="edge"><title>2242011429760&#45;&gt;ww</title>
<path fill="none" stroke="#cd9b1d" d="M91.4096,-86.442C97.0944,-75.4956 104.592,-61.0577 111.109,-48.5102"/>
<polygon fill="none" stroke="#cd9b1d" points="114.351,-49.8604 115.854,-39.3726 108.139,-46.6341 114.351,-49.8604"/>
<text text-anchor="start" x="107.5" y="-61.598" font-family="Times New Roman,serif" font-weight="bold" font-size="10.00" fill="blue">40.00</text>
</g>
<!-- 2242011429184 -->
<g id="node4" class="node"><title>2242011429184</title>
<polygon fill="none" stroke="black" points="273.5,-329.598 175.5,-329.598 175.5,-277.598 273.5,-277.598 273.5,-329.598"/>
<text text-anchor="start" x="200" y="-317.598" font-family="verdana" font-size="10.00">process 4</text>
<text text-anchor="start" x="200.5" y="-306.598" font-family="verdana" font-size="10.00">4.00 kg/h</text>
<text text-anchor="start" x="183.5" y="-295.598" font-family="verdana" font-size="10.00" fill="red">Unbalanced load</text>
<text text-anchor="start" x="192" y="-284.598" font-family="verdana" font-size="10.00" fill="red">Water deficit</text>
</g>
<!-- fw -->
<g id="node5" class="node"><title>fw</title>
<ellipse fill="#bfefff" stroke="black" cx="101.5" cy="-303.598" rx="55.7232" ry="19.6"/>
<text text-anchor="start" x="70" y="-306.598" font-family="verdana" font-weight="bold" font-size="10.00">Freshwater</text>
<text text-anchor="start" x="73" y="-296.598" font-family="verdana" font-size="10.00" fill="blue">90.00 m3/h</text>
</g>
<!-- fw&#45;&gt;2242011404560 -->
<g id="edge1" class="edge"><title>fw&#45;&gt;2242011404560</title>
<path fill="none" stroke="dodgerblue" d="M84.6839,-284.634C77.8749,-277.092 70.0831,-268.109 63.5,-259.598 58.639,-253.314 53.6915,-246.302 49.2182,-239.685"/>
<polygon fill="none" stroke="dodgerblue" points="51.9092,-237.41 43.4647,-231.012 46.0759,-241.28 51.9092,-237.41"/>
<text text-anchor="start" x="63.5" y="-252.598" font-family="Times New Roman,serif" font-weight="bold" font-size="10.00" fill="blue">20.00</text>
</g>
<!-- fw&#45;&gt;2242011429424 -->
<g id="edge2" class="edge"><title>fw&#45;&gt;2242011429424</title>
<path fill="none" stroke="dodgerblue" d="M109.102,-283.736C114.871,-269.263 122.906,-248.751 129.5,-230.598 134.81,-215.98 140.394,-199.534 144.838,-186.153"/>
<polygon fill="none" stroke="dodgerblue" points="148.18,-187.194 147.991,-176.6 141.533,-185 148.18,-187.194"/>
<text text-anchor="start" x="123.5" y="-252.598" font-family="Times New Roman,serif" font-weight="bold" font-size="10.00" fill="blue">50.00</text>
</g>
<!-- fw&#45;&gt;2242011429760 -->
<g id="edge3" class="edge"><title>fw&#45;&gt;2242011429760</title>
<path fill="none" stroke="dodgerblue" d="M100.203,-283.609C98.0575,-253.315 93.4113,-192.203 87.5,-140.598 87.2066,-138.037 86.8749,-135.374 86.5254,-132.712"/>
<polygon fill="none" stroke="dodgerblue" points="89.9725,-132.088 85.1321,-122.663 83.0388,-133.049 89.9725,-132.088"/>
<text text-anchor="start" x="96.5" y="-211.098" font-family="Times New Roman,serif" font-weight="bold" font-size="10.00" fill="blue">20.00</text>
</g>
</g>
</svg>
