<?xml version="1.0" encoding="UTF-8" standalone="no"?>
<!DOCTYPE svg PUBLIC "-//W3C//DTD SVG 1.1//EN"
 "http://www.w3.org/Graphics/SVG/1.1/DTD/svg11.dtd">
<!-- Generated by graphviz version 2.38.0 (20140413.2041)
 -->
<!-- Title: %3 Pages: 1 -->
<svg width="260pt" height="309pt"
 viewBox="0.00 0.00 260.44 309.20" xmlns="http://www.w3.org/2000/svg" xmlns:xlink="http://www.w3.org/1999/xlink">
<g id="graph0" class="graph" transform="scale(1 1) rotate(0) translate(4 305.196)">
<title>%3</title>
<polygon fill="white" stroke="none" points="-4,4 -4,-305.196 256.438,-305.196 256.438,4 -4,4"/>
<!-- 2242011355888 -->
<g id="node1" class="node"><title>2242011355888</title>
<polygon fill="none" stroke="black" points="97.9384,-214.598 32.9384,-214.598 32.9384,-178.598 97.9384,-178.598 97.9384,-214.598"/>
<text text-anchor="start" x="40.9384" y="-199.598" font-family="verdana" font-size="10.00">process 1</text>
<text text-anchor="start" x="41.4384" y="-188.598" font-family="verdana" font-size="10.00">2.00 kg/h</text>
</g>
<!-- 2242011386400 -->
<g id="node4" class="node"><title>2242011386400</title>
<polygon fill="none" stroke="black" points="103.938,-122.598 38.9384,-122.598 38.9384,-86.598 103.938,-86.598 103.938,-122.598"/>
<text text-anchor="start" x="46.9384" y="-107.598" font-family="verdana" font-size="10.00">process 4</text>
<text text-anchor="start" x="47.4384" y="-96.598" font-family="verdana" font-size="10.00">4.00 kg/h</text>
</g>
<!-- 2242011355888&#45;&gt;2242011386400 -->
<g id="edge5" class="edge"><title>2242011355888&#45;&gt;2242011386400</title>
<path fill="none" stroke="black" d="M66.5952,-178.245C67.4502,-165.421 68.6312,-147.706 69.6129,-132.979"/>
<polygon fill="none" stroke="black" points="73.112,-133.108 70.2851,-122.898 66.1275,-132.643 73.112,-133.108"/>
<text text-anchor="start" x="69.4384" y="-153.598" font-family="Times New Roman,serif" font-weight="bold" font-size="10.00" fill="blue">5.71</text>
<text text-anchor="start" x="71.9384" y="-143.598" font-family="Times New Roman,serif" font-size="10.00" fill="#145a32">100</text>
</g>
<!-- ww -->
<g id="node6" class="node"><title>ww</title>
<ellipse fill="#abebc6" stroke="black" cx="114.438" cy="-19.799" rx="58.8803" ry="19.6"/>
<text text-anchor="start" x="80.9384" y="-22.799" font-family="verdana" font-weight="bold" font-size="10.00">Wastewater</text>
<text text-anchor="start" x="85.9384" y="-12.799" font-family="verdana" font-size="10.00" fill="blue">90.00 m3/h</text>
</g>
<!-- 2242011355888&#45;&gt;ww -->
<g id="edge6" class="edge"><title>2242011355888&#45;&gt;ww</title>
<path fill="none" stroke="#cd9b1d" d="M44.3992,-178.544C20.5387,-157.036 -12.8239,-118.954 5.43836,-86.598 18.0824,-64.1961 41.7558,-48.5641 63.8179,-38.1763"/>
<polygon fill="none" stroke="#cd9b1d" points="65.4166,-41.2961 73.1377,-34.041 62.5775,-34.8976 65.4166,-41.2961"/>
<text text-anchor="start" x="5.43836" y="-103.098" font-family="Times New Roman,serif" font-weight="bold" font-size="10.00" fill="blue">14.29</text>
</g>
<!-- 2242011387744 -->
<g id="node2" class="node"><title>2242011387744</title>
<polygon fill="none" stroke="black" points="180.938,-214.598 115.938,-214.598 115.938,-178.598 180.938,-178.598 180.938,-214.598"/>
<text text-anchor="start" x="123.938" y="-199.598" font-family="verdana" font-size="10.00">process 2</text>
<text text-anchor="start" x="124.438" y="-188.598" font-family="verdana" font-size="10.00">5.00 kg/h</text>
</g>
<!-- 2242011389184 -->
<g id="node3" class="node"><title>2242011389184</title>
<polygon fill="none" stroke="black" points="252.438,-122.598 182.438,-122.598 182.438,-86.598 252.438,-86.598 252.438,-122.598"/>
<text text-anchor="start" x="192.938" y="-107.598" font-family="verdana" font-size="10.00">process 3</text>
<text text-anchor="start" x="190.438" y="-96.598" font-family="verdana" font-size="10.00">30.00 kg/h</text>
</g>
<!-- 2242011387744&#45;&gt;2242011389184 -->
<g id="edge4" class="edge"><title>2242011387744&#45;&gt;2242011389184</title>
<path fill="none" stroke="black" d="M156.386,-178.376C162.012,-167.076 170.183,-152.284 179.438,-140.598 182.414,-136.841 185.803,-133.127 189.304,-129.603"/>
<polygon fill="none" stroke="black" points="191.736,-132.119 196.548,-122.68 186.9,-127.058 191.736,-132.119"/>
<text text-anchor="start" x="179.438" y="-153.598" font-family="Times New Roman,serif" font-weight="bold" font-size="10.00" fill="blue">20.00</text>
<text text-anchor="start" x="184.438" y="-143.598" font-family="Times New Roman,serif" font-size="10.00" fill="#145a32">100</text>
</g>
<!-- 2242011387744&#45;&gt;ww -->
<g id="edge7" class="edge"><title>2242011387744&#45;&gt;ww</title>
<path fill="none" stroke="#cd9b1d" d="M145.116,-178.519C139.307,-148.651 127.241,-86.619 120.095,-49.8784"/>
<polygon fill="none" stroke="#cd9b1d" points="123.478,-48.9404 118.133,-39.7927 116.607,-50.277 123.478,-48.9404"/>
<text text-anchor="start" x="134.438" y="-103.098" font-family="Times New Roman,serif" font-weight="bold" font-size="10.00" fill="blue">30.00</text>
</g>
<!-- 2242011389184&#45;&gt;ww -->
<g id="edge8" class="edge"><title>2242011389184&#45;&gt;ww</title>
<path fill="none" stroke="#cd9b1d" d="M196.097,-86.442C181.007,-74.3114 160.582,-57.893 143.936,-44.5112"/>
<polygon fill="none" stroke="#cd9b1d" points="146.094,-41.7554 136.107,-38.2179 141.708,-47.2111 146.094,-41.7554"/>
<text text-anchor="start" x="172.438" y="-61.598" font-family="Times New Roman,serif" font-weight="bold" font-size="10.00" fill="blue">40.00</text>
</g>
<!-- 2242011386400&#45;&gt;ww -->
<g id="edge9" class="edge"><title>2242011386400&#45;&gt;ww</title>
<path fill="none" stroke="#cd9b1d" d="M80.348,-86.442C86.0328,-75.4956 93.5308,-61.0577 100.047,-48.5102"/>
<polygon fill="none" stroke="#cd9b1d" points="103.29,-49.8604 104.793,-39.3726 97.0775,-46.6341 103.29,-49.8604"/>
<text text-anchor="start" x="96.4384" y="-61.598" font-family="Times New Roman,serif" font-weight="bold" font-size="10.00" fill="blue">5.71</text>
</g>
<!-- fw -->
<g id="node5" class="node"><title>fw</title>
<ellipse fill="#bfefff" stroke="black" cx="148.438" cy="-281.397" rx="55.7232" ry="19.6"/>
<text text-anchor="start" x="116.938" y="-284.397" font-family="verdana" font-weight="bold" font-size="10.00">Freshwater</text>
<text text-anchor="start" x="119.938" y="-274.397" font-family="verdana" font-size="10.00" fill="blue">90.00 m3/h</text>
</g>
<!-- fw&#45;&gt;2242011355888 -->
<g id="edge1" class="edge"><title>fw&#45;&gt;2242011355888</title>
<path fill="none" stroke="dodgerblue" d="M130.429,-262.431C118.552,-250.583 102.847,-234.916 89.8514,-221.952"/>
<polygon fill="none" stroke="dodgerblue" points="92.1136,-219.265 82.5621,-214.68 87.1699,-224.221 92.1136,-219.265"/>
<text text-anchor="start" x="109.438" y="-236.598" font-family="Times New Roman,serif" font-weight="bold" font-size="10.00" fill="blue">20.00</text>
</g>
<!-- fw&#45;&gt;2242011387744 -->
<g id="edge2" class="edge"><title>fw&#45;&gt;2242011387744</title>
<path fill="none" stroke="dodgerblue" d="M148.438,-261.193C148.438,-250.44 148.438,-236.85 148.438,-224.996"/>
<polygon fill="none" stroke="dodgerblue" points="151.938,-224.729 148.438,-214.729 144.938,-224.729 151.938,-224.729"/>
<text text-anchor="start" x="148.438" y="-236.598" font-family="Times New Roman,serif" font-weight="bold" font-size="10.00" fill="blue">50.00</text>
</g>
<!-- fw&#45;&gt;2242011389184 -->
<g id="edge3" class="edge"><title>fw&#45;&gt;2242011389184</title>
<path fill="none" stroke="dodgerblue" d="M163.546,-262.258C167.99,-256.487 172.667,-249.948 176.438,-243.598 197.261,-208.537 208.196,-162.113 213.388,-133.051"/>
<polygon fill="none" stroke="dodgerblue" points="216.901,-133.264 215.106,-122.823 209.998,-132.105 216.901,-133.264"/>
<text text-anchor="start" x="203.438" y="-195.098" font-family="Times New Roman,serif" font-weight="bold" font-size="10.00" fill="blue">20.00</text>
</g>
</g>
</svg>
