<?xml version="1.0" encoding="UTF-8" standalone="no"?>
<!DOCTYPE svg PUBLIC "-//W3C//DTD SVG 1.1//EN"
 "http://www.w3.org/Graphics/SVG/1.1/DTD/svg11.dtd">
<!-- Generated by graphviz version 2.38.0 (20140413.2041)
 -->
<!-- Title: %3 Pages: 1 -->
<svg width="340pt" height="313pt"
 viewBox="0.00 0.00 340.00 313.20" xmlns="http://www.w3.org/2000/svg" xmlns:xlink="http://www.w3.org/1999/xlink">
<g id="graph0" class="graph" transform="scale(1 1) rotate(0) translate(4 309.196)">
<title>%3</title>
<polygon fill="white" stroke="none" points="-4,4 -4,-309.196 336,-309.196 336,4 -4,4"/>
<!-- 2737821516944 -->
<g id="node1" class="node"><title>2737821516944</title>
<polygon fill="#e8e8e8" stroke="black" points="95.5,-218.598 34.5,-218.598 34.5,-222.598 22.5,-222.598 22.5,-180.598 95.5,-180.598 95.5,-218.598"/>
<polyline fill="none" stroke="black" points="22.5,-218.598 34.5,-218.598 "/>
<text text-anchor="start" x="32" y="-207.598" font-family="verdana" font-weight="bold" font-size="10.00">Permeate</text>
<text text-anchor="start" x="30.5" y="-197.598" font-family="verdana" font-size="10.00" fill="blue">10.00 m3/h</text>
<text text-anchor="start" x="40.5" y="-187.598" font-family="verdana" font-size="10.00" fill="#145a32">20 ppm</text>
</g>
<!-- 2737820736000 -->
<g id="node4" class="node"><title>2737820736000</title>
<polygon fill="none" stroke="black" points="184,-123.598 108,-123.598 108,-87.598 184,-87.598 184,-123.598"/>
<text text-anchor="start" x="118" y="-108.598" font-family="verdana" font-size="10.00">Prewashing</text>
<text text-anchor="start" x="116" y="-97.598" font-family="verdana" font-size="10.00">100.00 kg/h</text>
</g>
<!-- 2737821516944&#45;&gt;2737820736000 -->
<g id="edge3" class="edge"><title>2737821516944&#45;&gt;2737820736000</title>
<path fill="none" stroke="gray" d="M76.1884,-180.422C89.4297,-166.419 107.881,-146.908 122.489,-131.46"/>
<polygon fill="none" stroke="gray" points="125.402,-133.474 129.73,-123.803 120.316,-128.664 125.402,-133.474"/>
<text text-anchor="start" x="111" y="-155.598" font-family="Times New Roman,serif" font-weight="bold" font-size="10.00" fill="blue">5.00</text>
<text text-anchor="start" x="115.5" y="-145.598" font-family="Times New Roman,serif" font-size="10.00" fill="#145a32">20</text>
</g>
<!-- 2737820736288 -->
<g id="node5" class="node"><title>2737820736288</title>
<polygon fill="#fef9e7" stroke="black" points="90,-124.598 12,-124.598 12,-128.598 0,-128.598 0,-86.598 90,-86.598 90,-124.598"/>
<polyline fill="none" stroke="black" points="0,-124.598 12,-124.598 "/>
<text text-anchor="start" x="8" y="-113.598" font-family="verdana" font-weight="bold" font-size="10.00">Makeupwater</text>
<text text-anchor="start" x="19.5" y="-103.598" font-family="verdana" font-size="10.00" fill="blue">5.00 m3/h</text>
<text text-anchor="start" x="26.5" y="-93.598" font-family="verdana" font-size="10.00" fill="#145a32">20 ppm</text>
</g>
<!-- 2737821516944&#45;&gt;2737820736288 -->
<g id="edge5" class="edge"><title>2737821516944&#45;&gt;2737820736288</title>
<path fill="none" stroke="gray" d="M56.2341,-180.422C54.259,-167.443 51.5637,-149.731 49.3082,-134.909"/>
<polygon fill="none" stroke="gray" points="52.7249,-134.096 47.7602,-124.736 45.8045,-135.149 52.7249,-134.096"/>
<text text-anchor="start" x="54" y="-155.598" font-family="Times New Roman,serif" font-weight="bold" font-size="10.00" fill="blue">5.00</text>
<text text-anchor="start" x="58.5" y="-145.598" font-family="Times New Roman,serif" font-size="10.00" fill="#145a32">20</text>
</g>
<!-- 2737821517232 -->
<g id="node2" class="node"><title>2737821517232</title>
<polygon fill="#e8e8e8" stroke="black" points="290,-124.598 214,-124.598 214,-128.598 202,-128.598 202,-86.598 290,-86.598 290,-124.598"/>
<polyline fill="none" stroke="black" points="202,-124.598 214,-124.598 "/>
<text text-anchor="start" x="210" y="-113.598" font-family="verdana" font-weight="bold" font-size="10.00">Condensates</text>
<text text-anchor="start" x="220.5" y="-103.598" font-family="verdana" font-size="10.00" fill="blue">5.00 m3/h</text>
<text text-anchor="start" x="227.5" y="-93.598" font-family="verdana" font-size="10.00" fill="#145a32">60 ppm</text>
</g>
<!-- ww -->
<g id="node7" class="node"><title>ww</title>
<ellipse fill="#abebc6" stroke="black" cx="246" cy="-19.799" rx="58.8803" ry="19.6"/>
<text text-anchor="start" x="212.5" y="-22.799" font-family="verdana" font-weight="bold" font-size="10.00">Wastewater</text>
<text text-anchor="start" x="214.5" y="-12.799" font-family="verdana" font-size="10.00" fill="blue">709.01 m3/h</text>
</g>
<!-- 2737821517232&#45;&gt;ww -->
<g id="edge8" class="edge"><title>2737821517232&#45;&gt;ww</title>
<path fill="none" stroke="#cd9b1d" d="M246,-86.4148C246,-75.7669 246,-62.0719 246,-49.9503"/>
<polygon fill="none" stroke="#cd9b1d" points="249.5,-49.8192 246,-39.8192 242.5,-49.8192 249.5,-49.8192"/>
<text text-anchor="start" x="246" y="-61.598" font-family="Times New Roman,serif" font-weight="bold" font-size="10.00" fill="blue">5.00</text>
</g>
<!-- 2737820734368 -->
<g id="node3" class="node"><title>2737820734368</title>
<polygon fill="none" stroke="black" points="258,-217.598 188,-217.598 188,-181.598 258,-181.598 258,-217.598"/>
<text text-anchor="start" x="205.5" y="-202.598" font-family="verdana" font-size="10.00">Rinçing</text>
<text text-anchor="start" x="196" y="-191.598" font-family="verdana" font-size="10.00">20.00 kg/h</text>
</g>
<!-- 2737820734368&#45;&gt;2737820736000 -->
<g id="edge4" class="edge"><title>2737820734368&#45;&gt;2737820736000</title>
<path fill="none" stroke="black" d="M208.517,-181.293C196.794,-167.287 180.125,-147.37 166.947,-131.625"/>
<polygon fill="none" stroke="black" points="169.52,-129.247 160.418,-123.825 164.152,-133.74 169.52,-129.247"/>
<text text-anchor="start" x="192" y="-155.598" font-family="Times New Roman,serif" font-weight="bold" font-size="10.00" fill="blue">64.69</text>
<text text-anchor="start" x="199" y="-145.598" font-family="Times New Roman,serif" font-size="10.00" fill="#145a32">30</text>
</g>
<!-- 2737820734368&#45;&gt;ww -->
<g id="edge6" class="edge"><title>2737820734368&#45;&gt;ww</title>
<path fill="none" stroke="#cd9b1d" d="M249.497,-181.417C267.185,-168.256 288.975,-148.351 299,-124.598 305.567,-109.038 304.617,-102.525 299,-86.598 293.649,-71.4245 283.154,-57.1741 272.904,-45.8413"/>
<polygon fill="none" stroke="#cd9b1d" points="275.34,-43.3238 265.914,-38.4862 270.266,-48.146 275.34,-43.3238"/>
<text text-anchor="start" x="303" y="-104.098" font-family="Times New Roman,serif" font-weight="bold" font-size="10.00" fill="blue">601.97</text>
</g>
<!-- 2737820736000&#45;&gt;ww -->
<g id="edge7" class="edge"><title>2737820736000&#45;&gt;ww</title>
<path fill="none" stroke="#cd9b1d" d="M166.72,-87.2348C181.238,-75.0693 200.84,-58.6428 216.92,-45.1677"/>
<polygon fill="none" stroke="#cd9b1d" points="219.546,-47.5338 224.962,-38.4283 215.05,-42.1685 219.546,-47.5338"/>
<text text-anchor="start" x="202" y="-61.598" font-family="Times New Roman,serif" font-weight="bold" font-size="10.00" fill="blue">102.04</text>
</g>
<!-- fw -->
<g id="node6" class="node"><title>fw</title>
<ellipse fill="#bfefff" stroke="black" cx="173" cy="-285.397" rx="55.7232" ry="19.6"/>
<text text-anchor="start" x="141.5" y="-288.397" font-family="verdana" font-weight="bold" font-size="10.00">Freshwater</text>
<text text-anchor="start" x="141.5" y="-278.397" font-family="verdana" font-size="10.00" fill="blue">699.01 m3/h</text>
</g>
<!-- fw&#45;&gt;2737820734368 -->
<g id="edge1" class="edge"><title>fw&#45;&gt;2737820734368</title>
<path fill="none" stroke="dodgerblue" d="M184.097,-265.799C190.996,-254.237 199.966,-239.203 207.554,-226.485"/>
<polygon fill="none" stroke="dodgerblue" points="210.667,-228.098 212.786,-217.717 204.656,-224.511 210.667,-228.098"/>
<text text-anchor="start" x="201" y="-240.598" font-family="Times New Roman,serif" font-weight="bold" font-size="10.00" fill="blue">666.67</text>
</g>
<!-- fw&#45;&gt;2737820736000 -->
<g id="edge2" class="edge"><title>fw&#45;&gt;2737820736000</title>
<path fill="none" stroke="dodgerblue" d="M166.852,-265.606C162.833,-252.559 157.823,-234.696 155,-218.598 149.99,-190.032 147.764,-156.871 146.778,-134.087"/>
<polygon fill="none" stroke="dodgerblue" points="150.264,-133.661 146.386,-123.801 143.269,-133.927 150.264,-133.661"/>
<text text-anchor="start" x="155" y="-198.098" font-family="Times New Roman,serif" font-weight="bold" font-size="10.00" fill="blue">32.35</text>
</g>
</g>
</svg>
